<svg xmlns="http://www.w3.org/2000/svg" viewBox="0 0 60 60" width="60" height="60"><path d="M53.317 19.687a8.727 8.727 0 0 0 -0.375 -0.362c-0.128 -0.116 -0.248 -0.245 -0.375 -0.361s-0.248 -0.247 -0.375 -0.361 -0.248 -0.247 -0.375 -0.362 -0.248 -0.245 -0.375 -0.361 -0.248 -0.247 -0.375 -0.362 -0.248 -0.245 -0.375 -0.361c3.72 3.525 5.852 8.321 5.932 13.351 0 11.984 -12.615 21.733 -28.125 21.733 -8.685 0 -16.455 -3.059 -21.623 -7.855l0.375 0.362 0.375 0.361 0.375 0.362 0.375 0.361 0.375 0.362 0.375 0.361 0.375 0.361c5.16 4.997 13.103 8.216 21.997 8.216 15.511 0 28.125 -9.748 28.125 -21.696 0 -5.107 -2.28 -9.945 -6.308 -13.749"/><path fill="#fbf0df" d="M54.751 30.506c0 11 -11.752 19.917 -26.251 19.917S2.249 41.506 2.249 30.506c0 -6.82 4.5 -12.844 11.415 -16.417s11.22 -7.233 14.835 -7.233 6.705 2.987 14.835 7.234c6.915 3.571 11.415 9.596 11.415 16.416"/><path fill="#f6dece" d="M54.751 30.506a15.164 15.164 0 0 0 -0.6 -4.18C52.103 50.409 21.638 51.566 9.66 44.363c5.384 4.023 12.028 6.161 18.84 6.06 14.475 0 26.251 -8.931 26.251 -19.917"/><path fill="#fffefc" d="M18.397 12.766c3.352 -1.939 7.808 -5.577 12.188 -5.583a7.2 7.2 0 0 0 -2.085 -0.326c-1.815 0 -3.751 0.904 -6.188 2.264 -0.848 0.477 -1.725 1.005 -2.655 1.555 -1.748 1.042 -3.751 2.22 -6 3.399 -7.14 3.725 -11.407 9.866 -11.407 16.432v0.861c4.545 -15.484 12.803 -16.663 16.148 -18.601"/><path fill="#ccbea7" d="M26.34 8.687a11.509 11.509 0 0 1 -1.09 4.954 11.891 11.891 0 0 1 -3.133 4.065c-0.211 0.181 -0.045 0.528 0.225 0.427 2.528 -0.947 5.94 -3.782 4.5 -9.503 -0.06 -0.326 -0.503 -0.239 -0.503 0.058m1.703 0a11.455 11.455 0 0 1 1.709 4.743 11.345 11.345 0 0 1 -0.502 4.997c-0.091 0.253 0.232 0.47 0.412 0.261 1.643 -2.025 3.075 -6.047 -1.215 -10.385 -0.217 -0.188 -0.555 0.101 -0.405 0.355zm2.071 -0.123a12.044 12.044 0 0 1 3.526 3.715 11.564 11.564 0 0 1 1.612 4.791 0.24 0.24 0 0 0 0.047 0.171 0.254 0.254 0 0 0 0.337 0.055 0.24 0.24 0 0 0 0.104 -0.146c0.689 -2.523 0.3 -6.827 -5.377 -9.062 -0.3 -0.116 -0.495 0.275 -0.248 0.448zm-13.845 7.522a12.873 12.873 0 0 0 4.645 -2.448 12.327 12.327 0 0 0 3.207 -4.06c0.135 -0.261 0.563 -0.159 0.495 0.13 -1.297 5.786 -5.64 6.994 -8.34 6.835 -0.285 0.008 -0.277 -0.376 -0.008 -0.456"/><path d="M28.5 52.239C12.989 52.239 0.375 42.49 0.375 30.506c0 -7.233 4.635 -13.98 12.397 -18.023 2.251 -1.157 4.177 -2.321 5.895 -3.341a158.182 158.182 0 0 1 2.7 -1.584c2.632 -1.503 4.883 -2.509 7.132 -2.509s4.215 0.868 6.675 2.271c0.751 0.412 1.5 0.861 2.303 1.353 1.868 1.114 3.975 2.372 6.751 3.812 7.763 4.043 12.397 10.784 12.397 18.023 0 11.984 -12.615 21.733 -28.125 21.733m0 -45.382c-1.815 0 -3.751 0.903 -6.188 2.264 -0.848 0.477 -1.725 1.005 -2.655 1.555 -1.748 1.042 -3.751 2.22 -6 3.399 -7.141 3.723 -11.408 9.864 -11.408 16.43 0 10.985 11.775 19.924 26.251 19.924s26.251 -8.939 26.251 -19.924c0 -6.567 -4.268 -12.707 -11.415 -16.417 -2.835 -1.447 -5.048 -2.806 -6.84 -3.877 -0.817 -0.484 -1.568 -0.933 -2.251 -1.33 -2.272 -1.303 -3.931 -2.025 -5.745 -2.025"/><path fill="#b71422" d="M33.788 35.786a6.436 6.436 0 0 1 -2.189 3.407 5.193 5.193 0 0 1 -3 1.359 5.215 5.215 0 0 1 -3.097 -1.359 6.436 6.436 0 0 1 -2.16 -3.407 0.545 0.545 0 0 1 0.023 -0.235 0.545 0.545 0 0 1 0.128 -0.201 0.556 0.556 0 0 1 0.449 -0.151h9.255a0.556 0.556 0 0 1 0.444 0.155 0.502 0.502 0 0 1 0.148 0.431"/><path fill="#ff6164" d="M25.5 39.25a5.269 5.269 0 0 0 3.091 1.375 5.269 5.269 0 0 0 3.083 -1.375 7.636 7.636 0 0 0 0.751 -0.773 5.127 5.127 0 0 0 -1.658 -1.202 5.345 5.345 0 0 0 -2.017 -0.469 4.735 4.735 0 0 0 -2.133 0.559 4.582 4.582 0 0 0 -1.618 1.452c0.172 0.152 0.323 0.297 0.503 0.433"/><path d="M25.62 38.678a3.982 3.982 0 0 1 1.392 -1.1 4.145 4.145 0 0 1 1.75 -0.404 4.582 4.582 0 0 1 3 1.223q0.259 -0.273 0.495 -0.556a5.345 5.345 0 0 0 -3.532 -1.396 4.909 4.909 0 0 0 -2.032 0.457 4.691 4.691 0 0 0 -1.635 1.25q0.266 0.279 0.563 0.528"/><path d="M28.568 40.985a5.673 5.673 0 0 1 -3.337 -1.447 6.873 6.873 0 0 1 -2.332 -3.652 0.873 0.873 0 0 1 0.013 -0.383 0.873 0.873 0 0 1 0.182 -0.34 1.091 1.091 0 0 1 0.38 -0.279 1.091 1.091 0 0 1 0.468 -0.091h9.255c0.16 -0.003 0.32 0.028 0.467 0.092a1.091 1.091 0 0 1 0.381 0.277 0.873 0.873 0 0 1 0.179 0.341q0.049 0.19 0.009 0.382a6.873 6.873 0 0 1 -2.332 3.652 5.673 5.673 0 0 1 -3.331 1.447m-4.628 -5.352c-0.12 0 -0.151 0.05 -0.157 0.065a5.967 5.967 0 0 0 2.048 3.16 4.745 4.745 0 0 0 2.737 1.265 4.8 4.8 0 0 0 2.737 -1.251 5.967 5.967 0 0 0 2.04 -3.16 0.153 0.153 0 0 0 -0.065 -0.053 0.164 0.164 0 0 0 -0.084 -0.012z"/><path fill="#febbd0" d="M39.915 36.235c2.423 0 4.388 -1.114 4.388 -2.488s-1.964 -2.487 -4.388 -2.487 -4.388 1.114 -4.388 2.487 1.964 2.487 4.388 2.487zm-22.703 0c2.423 0 4.388 -1.114 4.388 -2.488s-1.964 -2.487 -4.388 -2.487 -4.388 1.114 -4.388 2.487 1.964 2.487 4.388 2.487z"/><path d="M19.275 32.748a4.255 4.255 0 0 0 2.297 -0.668 4.036 4.036 0 0 0 1.525 -1.787 3.84 3.84 0 0 0 0.238 -2.303 3.927 3.927 0 0 0 -1.129 -2.042 4.167 4.167 0 0 0 -2.116 -1.092 4.255 4.255 0 0 0 -2.389 0.225 4.102 4.102 0 0 0 -1.857 1.467 3.895 3.895 0 0 0 -0.697 2.215c0 1.056 0.434 2.068 1.208 2.815a4.211 4.211 0 0 0 2.917 1.171m18.577 0a4.255 4.255 0 0 0 2.304 -0.658 4.036 4.036 0 0 0 1.535 -1.783 3.84 3.84 0 0 0 0.248 -2.305 3.927 3.927 0 0 0 -1.124 -2.048 4.167 4.167 0 0 0 -2.115 -1.099 4.255 4.255 0 0 0 -2.392 0.221 4.102 4.102 0 0 0 -1.86 1.467 3.895 3.895 0 0 0 -0.698 2.217 3.905 3.905 0 0 0 1.198 2.81 4.2 4.2 0 0 0 2.905 1.175"/><path fill="#fff" d="M18 29.017a1.593 1.593 0 0 0 0.864 -0.249c0.256 -0.164 0.457 -0.397 0.575 -0.67a1.451 1.451 0 0 0 0.092 -0.866 1.484 1.484 0 0 0 -0.423 -0.768 1.571 1.571 0 0 0 -0.795 -0.411 1.604 1.604 0 0 0 -0.898 0.084 1.527 1.527 0 0 0 -0.698 0.551 1.451 1.451 0 0 0 -0.262 0.832c0 0.396 0.163 0.776 0.452 1.056a1.582 1.582 0 0 0 1.093 0.441zm18.577 0a1.593 1.593 0 0 0 0.864 -0.249c0.256 -0.164 0.457 -0.397 0.575 -0.67a1.451 1.451 0 0 0 0.092 -0.866 1.484 1.484 0 0 0 -0.423 -0.768 1.571 1.571 0 0 0 -0.795 -0.411 1.604 1.604 0 0 0 -0.898 0.084 1.527 1.527 0 0 0 -0.698 0.551 1.451 1.451 0 0 0 -0.262 0.832c0 0.394 0.16 0.77 0.446 1.051s0.675 0.441 1.083 0.446z"/></svg>