<svg xmlns="http://www.w3.org/2000/svg" viewBox="0 0 55 55" width="55" height="55"><path fill="#F0DB4F" d="M0.605 0.605h53.79v53.79H0.605z"/><path fill="#323330" d="M49.993 41.566c-0.394 -2.454 -1.994 -4.515 -6.734 -6.437 -1.647 -0.757 -3.482 -1.299 -4.029 -2.546 -0.194 -0.726 -0.22 -1.135 -0.097 -1.575 0.353 -1.427 2.056 -1.871 3.405 -1.462 0.869 0.291 1.692 0.961 2.188 2.03 2.321 -1.503 2.316 -1.493 3.937 -2.526 -0.593 -0.92 -0.91 -1.344 -1.299 -1.738 -1.396 -1.559 -3.298 -2.362 -6.34 -2.301l-1.585 0.205c-1.519 0.384 -2.966 1.181 -3.814 2.249 -2.546 2.889 -1.82 7.946 1.278 10.027 3.053 2.291 7.537 2.812 8.109 4.955 0.557 2.623 -1.928 3.472 -4.397 3.17 -1.82 -0.379 -2.833 -1.304 -3.927 -2.986 -2.014 1.166 -2.014 1.166 -4.085 2.357 0.491 1.074 1.007 1.56 1.83 2.49 3.896 3.952 13.647 3.758 15.396 -2.224 0.071 -0.205 0.542 -1.575 0.163 -3.687M29.847 25.327H24.816l-0.021 13.007c0 2.766 0.143 5.302 -0.307 6.08 -0.736 1.529 -2.643 1.339 -3.513 1.043 -0.885 -0.435 -1.335 -1.053 -1.856 -1.927 -0.143 -0.251 -0.251 -0.445 -0.287 -0.46l-4.091 2.505c0.68 1.396 1.682 2.608 2.966 3.395 1.917 1.151 4.494 1.503 7.189 0.885 1.754 -0.511 3.267 -1.569 4.06 -3.18 1.146 -2.112 0.9 -4.668 0.889 -7.495 0.026 -4.613 0 -9.225 0 -13.852"/></svg>