<svg xmlns="http://www.w3.org/2000/svg" viewBox="0 0 55 55" width="55" height="55"><g fill="#61DAFB"><path cx="64" cy="64" r="11.4" d="M32.398 27.5A4.897 4.897 0 0 1 27.5 32.398 4.897 4.897 0 0 1 22.602 27.5a4.898 4.898 0 0 1 9.796 0"/><path d="M46.106 19.422a47.596 47.596 0 0 0 -2.965 -0.988c0.258 -1.031 0.473 -2.063 0.644 -3.05 0.902 -5.671 -0.086 -9.668 -2.836 -11.215 -0.817 -0.473 -1.719 -0.688 -2.75 -0.688 -3.008 0 -6.832 2.235 -10.7 5.973 -3.867 -3.738 -7.692 -5.973 -10.7 -5.973 -1.031 0 -1.933 0.215 -2.75 0.688 -2.75 1.59 -3.738 5.586 -2.836 11.215 0.172 0.988 0.387 2.019 0.644 3.05 -1.031 0.3 -2.019 0.602 -2.965 0.988C3.523 21.485 0.602 24.321 0.602 27.5s2.965 6.016 8.293 8.079c0.946 0.344 1.933 0.688 2.965 0.988 -0.258 1.031 -0.473 2.063 -0.644 3.05 -0.902 5.671 0.086 9.668 2.836 11.215 0.817 0.473 1.719 0.688 2.75 0.688 3.05 0 6.875 -2.235 10.7 -5.973 3.867 3.738 7.692 5.973 10.7 5.973 1.031 0 1.933 -0.215 2.75 -0.688 2.75 -1.59 3.738 -5.586 2.836 -11.215a44.423 44.423 0 0 0 -0.644 -3.05c1.031 -0.3 2.019 -0.602 2.965 -0.988 5.371 -2.063 8.293 -4.898 8.293 -8.079s-2.921 -6.016 -8.293 -8.079m-6.361 -13.105c1.762 1.031 2.363 4.211 1.633 8.723 -0.129 0.902 -0.344 1.848 -0.602 2.836 -2.235 -0.515 -4.598 -0.86 -7.09 -1.075a62.404 62.404 0 0 0 -4.469 -5.586c3.179 -3.137 6.402 -5.285 9.023 -5.285 0.558 0 1.075 0.129 1.504 0.387m-4.813 25.481c-0.773 1.375 -1.675 2.75 -2.621 4.125a59.231 59.231 0 0 1 -4.813 0.172c-1.675 0 -3.265 -0.043 -4.813 -0.172q-1.418 -2.063 -2.579 -4.125A68.75 68.75 0 0 1 17.832 27.5a68.75 68.75 0 0 1 2.277 -4.297c0.773 -1.375 1.675 -2.75 2.621 -4.125a59.231 59.231 0 0 1 4.813 -0.172c1.675 0 3.265 0.043 4.813 0.172q1.418 2.063 2.579 4.125A68.75 68.75 0 0 1 37.211 27.5c-0.731 1.418 -1.461 2.836 -2.277 4.297m3.567 -1.418a50.769 50.769 0 0 1 1.633 4.425c-1.461 0.344 -3.008 0.602 -4.641 0.817 0.515 -0.817 1.075 -1.675 1.547 -2.579 0.515 -0.902 0.988 -1.804 1.461 -2.664M27.5 42.023a48.654 48.654 0 0 1 -2.965 -3.567c0.988 0.043 1.977 0.086 2.965 0.086s1.977 -0.043 2.965 -0.086A48.654 48.654 0 0 1 27.5 42.023m-7.992 -6.446c-1.633 -0.215 -3.179 -0.473 -4.641 -0.817 0.473 -1.418 0.988 -2.921 1.633 -4.425 0.473 0.86 0.946 1.762 1.461 2.621 0.515 0.946 1.031 1.762 1.547 2.621M16.5 24.621a50.769 50.769 0 0 1 -1.633 -4.425c1.461 -0.344 3.008 -0.602 4.641 -0.817 -0.515 0.817 -1.075 1.675 -1.547 2.579 -0.515 0.902 -0.988 1.804 -1.461 2.664M27.5 12.977a48.654 48.654 0 0 1 2.965 3.567c-0.988 -0.043 -1.977 -0.086 -2.965 -0.086s-1.977 0.043 -2.965 0.086A48.654 48.654 0 0 1 27.5 12.977m9.539 9.023 -1.547 -2.579c1.633 0.215 3.179 0.473 4.641 0.817 -0.473 1.418 -0.988 2.921 -1.633 4.425 -0.473 -0.902 -0.946 -1.804 -1.461 -2.664m-23.418 -6.96c-0.731 -4.512 -0.129 -7.692 1.633 -8.723 0.429 -0.258 0.946 -0.387 1.504 -0.387 2.579 0 5.8 2.106 9.023 5.285 -1.504 1.633 -3.008 3.523 -4.469 5.586a58.173 58.173 0 0 0 -7.09 1.075c-0.258 -0.988 -0.429 -1.933 -0.602 -2.836M3.008 27.5c0 -2.019 2.45 -4.168 6.746 -5.758a25.385 25.385 0 0 1 2.75 -0.902 62.404 62.404 0 0 0 2.579 6.703c-1.031 2.277 -1.933 4.512 -2.579 6.66C6.575 32.484 3.008 29.906 3.008 27.5m12.246 21.183c-1.762 -1.031 -2.363 -4.211 -1.633 -8.723 0.129 -0.902 0.344 -1.848 0.602 -2.836 2.235 0.515 4.598 0.86 7.09 1.075a62.404 62.404 0 0 0 4.469 5.586c-3.179 3.137 -6.402 5.285 -9.023 5.285 -0.558 0 -1.075 -0.129 -1.504 -0.387m26.125 -8.723c0.731 4.512 0.129 7.692 -1.633 8.723 -0.429 0.258 -0.946 0.387 -1.504 0.387 -2.579 0 -5.8 -2.106 -9.023 -5.285 1.504 -1.633 3.008 -3.523 4.469 -5.586a58.173 58.173 0 0 0 7.09 -1.075c0.258 0.988 0.429 1.933 0.602 2.836m3.867 -6.703c-0.86 0.344 -1.804 0.644 -2.75 0.902a62.404 62.404 0 0 0 -2.579 -6.703c1.031 -2.277 1.933 -4.512 2.579 -6.66 5.929 1.719 9.496 4.297 9.496 6.703 0 2.019 -2.492 4.168 -6.746 5.758"/></g></svg>