<svg width="55" height="55" viewBox="0 0 55 55" fill="none" xmlns="http://www.w3.org/2000/svg">
<path d="M16.772 32.3529C19.5258 32.3529 21.7582 30.1205 21.7582 27.3666C21.7582 24.6128 19.5258 22.3804 16.772 22.3804C14.0181 22.3804 11.7857 24.6128 11.7857 27.3666C11.7857 30.1205 14.0181 32.3529 16.772 32.3529ZM4.98626 42.3254C7.7401 42.3254 9.97253 40.093 9.97253 37.3392C9.97253 34.5853 7.7401 32.3529 4.98626 32.3529C2.23243 32.3529 0 34.5853 0 37.3392C0 40.093 2.23243 42.3254 4.98626 42.3254ZM50.0137 42.3254C52.7676 42.3254 55 40.093 55 37.3392C55 34.5853 52.7676 32.3529 50.0137 32.3529C47.2599 32.3529 45.0275 34.5853 45.0275 37.3392C45.0275 40.093 47.2599 42.3254 50.0137 42.3254Z" fill="black"/>
<path d="M33.6371 27.5767C33.4777 25.9108 33.3965 24.5242 32.1203 23.5497C30.5041 22.3155 28.6733 23.1163 26.4181 22.3023C24.2022 21.7663 22.5586 19.7988 22.5586 17.4538C22.5586 14.6963 24.8312 12.4609 27.6346 12.4609C29.7109 12.4609 31.496 13.6872 32.2823 15.4435C33.4858 17.7294 32.7036 20.0557 34.2156 21.2274C36.006 22.6149 38.4197 21.5989 41.113 22.9135C41.9783 23.3111 42.7108 23.9419 43.227 24.7236C43.7432 25.5053 44.043 26.4379 44.043 27.4395C44.043 29.7845 42.3993 31.752 40.1834 32.288C37.9283 33.102 36.0975 32.3012 34.4812 33.5354C32.6638 34.9232 33.6368 37.245 32.1555 39.6976C31.3148 41.3126 29.6059 42.418 27.6346 42.418C24.8312 42.418 22.5586 40.1826 22.5586 37.4252C22.5586 35.4221 23.7578 33.6945 25.4886 32.8992C28.1819 31.5846 30.5956 32.6006 32.3859 31.2131C33.4188 30.4127 33.6371 29.178 33.6371 27.5767Z" fill="#D0021B"/>
</svg>
