<svg width="55" height="55" viewBox="0 0 55 55" fill="none" xmlns="http://www.w3.org/2000/svg">
<mask id="mask0_196_8980" style="mask-type:luminance" maskUnits="userSpaceOnUse" x="0" y="0" width="55" height="55">
<path d="M0 0H55V55H0V0Z" fill="white"/>
</mask>
<g mask="url(#mask0_196_8980)">
<path d="M6.54909 42.3906C5.21677 43.0157 3.8979 43.673 2.59349 44.3618L1.80149 45.3192C1.50449 46.1945 1.55509 47.5673 1.42969 48.4942L1.79489 49.339L2.26569 49.1512C2.26569 49.1512 2.45709 48.3698 3.67809 47.0627L4.79349 46.0443C4.79349 46.0443 8.78209 43.517 9.34749 43.2307C8.54669 42.9914 7.34769 42.6394 6.54909 42.3906Z" fill="#FF5A5A"/>
<path d="M9.31909 43.1321C7.64049 44.6433 5.39649 45.4341 3.81909 47.0838L3.42969 47.6892C6.15769 45.8917 8.95169 48.8038 11.4289 49.597C12.0229 49.7847 11.4861 49.4327 11.4289 48.9986C11.4047 48.8203 11.5147 48.5152 11.7589 48.0787L11.7677 47.4217L10.0649 46.9524L10.3619 45.3074L11.2243 44.6433C11.3959 44.3335 12.2363 43.8619 12.4343 43.5638L10.6039 43.1016L9.31909 43.1321Z" fill="#9D3737"/>
<path d="M43.7468 42.9005V40.7581L43.6588 39.092L43.2848 37.5103L42.9328 36.4426L42.3916 35.4805L41.9582 34.6334L41.5534 35.6941L40.8164 37.0011L40.2444 37.7708L39.5052 38.4068L38.1258 39.214H36.8168L35.565 38.5804L34.4562 37.9187L33.6598 36.8322L33.4178 36.0038L32.9734 33.1973L32.7842 33.7792L32.1022 35.1403L31.3014 36.3605L30.197 37.4094L29.3082 37.921L28.107 38.2683L27.2204 38.2308L24.7718 37.0621L23.5662 35.4805L23.1636 34.6334L22.178 36.7594L21.0472 38.2683L19.2872 40.2512L17.5558 41.4315L16.0488 42.6401C16.1148 43.344 16.3194 43.8439 16.6648 44.1372C17.5492 44.8834 18.1168 46.1787 18.9374 46.8241C19.9824 47.6501 20.9526 48.0443 21.8964 48.6755C22.7852 49.2716 22.9964 50.3722 23.7752 50.8344C26.6946 52.5639 29.4006 52.7798 30.0958 52.6648C30.9252 52.8361 32.0538 52.6296 32.8876 52.6413C33.4662 52.5005 34.8456 52.3644 35.565 52.0406C36.7046 51.5267 38.5306 50.8391 39.624 50.0788C40.9198 49.1777 41.758 47.8355 42.0748 47.4365C42.3916 47.0376 42.7018 46.2632 42.9328 45.8244C43.1946 45.2753 43.3266 44.7192 43.5092 44.1348L43.7468 42.8982V42.9005Z" fill="url(#paint0_linear_196_8980)"/>
<path d="M19.8472 40.5141C21.3894 42.9663 27.1094 41.5185 27.1094 38.4467C27.1094 38.4467 25.4814 38.0666 24.7796 37.3368L23.2066 35.3281C22.342 37.1209 19.8472 39.1719 19.5898 40.0612C19.5898 40.0612 19.7548 40.3428 19.8472 40.5141ZM38.1248 39.4042C38.0192 41.8916 41.7152 43.0532 43.4884 41.8963C43.5918 39.559 43.3124 37.074 41.9638 35.1943C41.5282 35.7153 41.4842 36.8417 40.3578 37.9188C39.6997 38.5468 38.9451 39.0493 38.127 39.4042H38.1248Z" fill="#F28773"/>
<path d="M30.7293 38.2676C31.0791 39.5629 32.9359 39.8961 34.2493 40.1308C33.1361 40.525 31.8733 40.3349 30.8525 39.7553C30.2805 39.4925 29.7789 38.4835 30.7293 38.2676Z" fill="#564341"/>
<path d="M15.9418 43.3527C15.6822 42.8998 12.0214 43.6437 10.345 45.8049C9.53095 46.7201 10.6662 47.2011 11.4934 47.0721C13.942 46.408 13.6054 44.8404 17.2024 45.2652C17.2464 45.2746 16.571 44.4556 15.9418 43.3527Z" fill="url(#paint1_linear_196_8980)"/>
<path d="M17.595 45.6927C15.9054 45.0098 13.2962 45.7349 11.9696 47.6052C11.501 48.2669 10.7772 50.2217 11.589 50.0293C13.635 49.5458 15.1112 49.5529 15.373 49.2948C16.33 48.3538 17.0055 47.6779 19.4673 47.5817C19.1725 47.1593 18.2243 45.9438 17.5973 45.6904L17.595 45.6927Z" fill="url(#paint2_linear_196_8980)"/>
<path d="M20.8213 48.0092C19.9695 47.66 19.0428 47.5736 18.1471 47.7599C17.2515 47.9463 16.4231 48.3978 15.7569 49.0629C12.6615 52.0548 13.0839 53.8899 13.0839 53.8899L13.4073 54.4789C14.2543 54.8332 17.9063 53.7186 18.9161 53.4088C20.8411 52.8222 22.9003 52.6063 24.8121 51.961C24.8121 51.961 21.4175 48.4645 20.8213 48.0092Z" fill="url(#paint3_linear_196_8980)"/>
<path d="M36.2344 52.1766C38.6874 52.3831 41.0722 53.2138 43.3624 54.1313L43.93 54.3355L44.392 54.244C45.03 53.1551 44.018 52.0311 43.3756 51.2356C42.7728 50.5668 41.7674 50.2665 40.9336 50.0928C39.1846 49.9215 37.726 51.3975 36.2344 52.1766Z" fill="url(#paint4_linear_196_8980)"/>
<path d="M39.7656 50.2593C41.2396 49.7923 42.8676 50.3297 43.9478 51.6203C43.9478 51.6203 44.7882 52.1741 45.028 52.0099C45.2568 51.855 44.9862 50.7709 44.8608 50.5174C44.1084 48.9874 43.51 48.0488 42.0294 47.6006C41.2924 48.4759 40.584 49.4544 39.7656 50.2593Z" fill="url(#paint5_linear_196_8980)"/>
<path d="M42.34 47.4998C44.4036 48.1967 43.836 48.9828 45.7192 49.4521C45.8358 49.4803 45.8468 48.9124 45.8468 48.7834C45.8468 48.1685 44.2584 46.7348 43.3938 46.1364C43.0418 45.8923 42.1794 47.4434 42.34 47.4974V47.4998Z" fill="url(#paint6_linear_196_8980)"/>
<path d="M34.4263 22.2427C34.5319 22.9772 34.3163 25.0891 34.3163 25.0891C40.1243 23.4606 48.0509 14.2759 36.3249 16.0429C37.5613 14.1281 40.0869 13.0956 41.0329 10.8968L40.9823 10.627C35.7287 10.8945 30.4641 13.7925 27.2147 18.2394L26.9551 19.0537L27.3071 19.9923C29.6985 20.7761 32.2989 20.5508 34.7871 20.762C34.7871 20.762 34.3581 22.0245 34.4263 22.2427Z" fill="url(#paint7_linear_196_8980)"/>
<path d="M33.2416 32.2601C32.2164 35.9326 36.0202 36.7375 38.6074 35.3952C44.4154 30.472 42.86 18.99 34.1722 25.8257C33.6816 26.6658 33.8048 28.9068 33.785 29.0171C33.642 29.8267 33.2922 32.0865 33.2438 32.2601H33.2416Z" fill="url(#paint8_linear_196_8980)"/>
<path d="M23.4874 33.0096C23.7074 34.7273 26.7984 35.0746 28.4088 34.319C32.1774 32.972 33.3104 25.1437 31.8078 22.8112C31.6714 22.6 29.7948 22.3113 29.0314 22.2315C26.8974 22.011 24.3652 24.1346 23.2674 27.1407C22.9792 27.9338 23.3774 28.9429 23.4544 29.7595C23.56 30.8976 23.3818 32.1835 23.4874 33.0096Z" fill="url(#paint9_linear_196_8980)"/>
<path d="M23.4082 33.7364C23.4082 33.7364 29.137 37.9791 31.9574 29.9396C32.6768 27.8863 32.3534 24.8216 32.3754 23.4512C34.8724 24.7418 32.9914 32.0773 32.8154 32.9573C32.1906 36.0549 29.3394 38.4789 26.9546 37.8054C23.3664 36.794 23.4082 33.7364 23.4082 33.7364ZM33.2466 35.1889L33.7438 35.3861C35.3014 36.6298 37.5388 36.191 39.0612 35.0974C41.2722 33.1826 41.4746 30.6107 42.3216 27.9637L42.4756 28.1421C42.8166 30.8782 42.1984 33.6801 41.2876 36.2332C39.2746 40.5345 33.9484 40.1708 33.2466 35.1889Z" fill="white"/>
<path d="M34.3954 29.043C34.0148 30.0051 33.8784 31.2207 34.1468 32.2344C34.7848 33.8066 36.5448 33.9427 37.5634 32.7014C40.4894 29.3598 36.9782 23.7138 34.3954 29.0407V29.043ZM29.331 29.0148C29.8832 22.1557 23.1578 25.8891 24.8584 30.8358C26.317 33.3279 28.8184 31.0775 29.331 29.0148Z" fill="white"/>
<path d="M43.2494 47.023C43.311 47.4665 43.5948 47.8912 43.5948 47.8912L42.9788 47.436L42.5586 47.2201L43.0998 46.2627L43.322 46.38C43.322 46.38 43.1988 46.664 43.2494 47.023Z" fill="url(#paint10_linear_196_8980)"/>
<path d="M41.9632 49.3532C42.137 49.7897 42.7024 50.3036 42.7024 50.3036L41.2768 49.846L40.5684 49.7733L41.8026 48.3066C41.8026 48.3066 41.7828 48.9003 41.9632 49.3532Z" fill="url(#paint11_linear_196_8980)"/>
<path d="M15.1934 54.0698C15.1934 54.0698 19.1754 52.8026 20.7792 51.0943C21.8748 49.9257 20.9772 48.4544 21.151 48.5365C22.2334 49.0551 22.5656 49.8248 23.2102 50.6602C23.505 51.0427 24.7832 51.9391 24.7832 51.9391C24.7832 51.9391 22.6514 52.2535 21.7736 52.5445C20.205 53.0608 15.1956 54.0698 15.1956 54.0698H15.1934Z" fill="url(#paint12_linear_196_8980)"/>
<path d="M39.8157 51.0098C39.9851 51.9719 40.2029 52.2347 41.8903 53.1452C41.9475 53.1781 40.8959 52.8003 39.2657 52.3661C38.7157 52.2206 37.0723 51.9344 37.0723 51.9344C37.0723 51.9344 38.2603 51.4322 38.5661 51.221C38.9401 50.9582 39.9213 50.5146 39.9213 50.5146C39.9213 50.5146 39.8003 50.9159 39.8157 51.0074V51.0098Z" fill="url(#paint13_linear_196_8980)"/>
<path d="M15.1689 49.0601C14.9709 49.1234 14.2669 49.2009 13.5783 49.4262C13.2681 49.5294 12.7863 49.6725 12.4365 49.7758C12.2759 49.8227 11.8315 49.8767 11.6863 49.7523C11.6423 49.7124 11.5543 49.5294 11.6093 49.5177C13.5233 49.0812 14.6893 48.525 15.5407 47.9759C17.0015 47.0373 17.2633 46.2981 17.3843 45.749C17.4349 45.5143 17.9651 46.047 18.1499 46.2512L19.1113 47.3189C19.1113 47.3189 17.7275 47.6005 17.3051 47.7295C16.3591 48.0205 15.4395 48.9709 15.1689 49.0601Z" fill="url(#paint14_linear_196_8980)"/>
<path d="M10.1791 46.8007C11.9545 46.0522 13.7145 45.4045 15.6065 43.3864C15.7319 43.2527 16.0993 43.5741 16.1521 43.7079C16.4051 44.3509 16.8715 45.0619 16.5657 45.0267C14.6957 44.8085 13.5451 45.6415 12.7113 46.3244C12.1129 46.8125 10.0141 46.8688 10.1791 46.8007Z" fill="url(#paint15_linear_196_8980)"/>
<path d="M43.5094 38.1863C43.6084 38.7706 43.6084 40.4156 43.813 40.54C47.366 42.6942 52.5778 42.5017 53.5458 37.6865L54.0738 37.602L54.549 37.0341C54.7114 36.1165 54.8304 35.1908 54.9054 34.2604L54.6194 32.9181L54.0694 31.7167L52.6526 29.9943L51.0774 29.0228L49.4054 28.4924L47.399 28.293L45.837 28.4244L44.044 28.8937C43.758 29.0674 42.944 29.5625 42.7152 29.8159C42.6206 30.3674 42.4072 31.482 42.2818 32.0217C42.2268 32.3972 42.2268 33.188 42.0574 33.5893L42.0156 34.4012L42.2334 35.3633C42.7174 36.3794 43.2784 37.0341 43.5094 38.1863Z" fill="url(#paint16_linear_196_8980)"/>
<path d="M45.0859 41.2572C42.6263 35.3344 45.4467 29.4702 51.7893 29.564C50.3197 28.5456 49.1031 28.3978 47.3981 28.2969L46.5335 28.4377L45.9109 28.3837C44.8637 28.6958 43.4975 29.0149 42.7033 29.8691C42.6703 30.3901 42.4041 31.561 42.2743 32.0749C42.1423 32.4574 41.7353 33.5862 41.7463 33.9898L42.3755 35.5503C42.8221 36.4654 43.0509 36.8268 43.2621 37.85L43.6581 39.4222L43.8539 40.5368L45.0859 41.2596V41.2572Z" fill="url(#paint17_linear_196_8980)"/>
<path d="M47.1142 33.57C47.2396 33.3353 47.1494 32.8026 46.7842 32.5609C46.3662 32.284 45.7744 32.3263 45.528 32.8895C45.3344 33.3283 45.6116 33.7671 46.012 33.9924C46.4168 34.2176 46.892 33.9877 47.1142 33.57Z" fill="url(#paint18_linear_196_8980)"/>
<path d="M52.2742 33.3543C51.9398 33.9504 50.9498 34.4033 49.742 33.9996C48.3384 33.528 46.8336 32.059 47.9798 30.4046C48.4836 29.6772 49.8894 29.7006 50.8838 30.2263C51.6098 30.6088 53.0662 31.944 52.2742 33.3543Z" fill="url(#paint19_linear_196_8980)"/>
<path d="M43.7734 34.7832C44.407 36.0034 44.7854 36.745 46.7698 36.745C47.432 36.745 47.5728 37.8315 48.8708 38.9672C49.5044 39.5257 50.7518 39.5093 51.4844 39.04C51.9222 38.7607 52.0806 38.871 52.2148 38.9531C52.5228 39.1409 52.58 39.0705 52.9826 39.0423C52.9826 39.0423 53.4622 38.3289 53.2752 37.8315C52.6944 37.4302 52.1972 37.104 51.4778 37.1228L51.0554 37.5452L50.7386 38.0755L50.3536 38.3336L49.7816 38.2797C49.2303 37.7732 48.7489 37.1863 48.3516 36.5361C47.4914 35.6092 46.6136 35.8157 45.5202 35.9659C44.9988 35.6186 44.3256 35.0812 43.7734 34.7832Z" fill="#ED8870"/>
<path d="M14.3564 42.8513C19.665 41.2415 23.2136 36.4192 24.2718 30.7428L24.2828 29.6117L24.4808 28.7552C24.3664 27.9503 24.428 26.7394 24.3686 25.9345L24.9846 25.66L25.5126 25.5427L25.9438 25.2212C26.1968 24.5172 26.1638 24.5641 26.1132 23.8249C21.8606 14.7506 8.13265 12.7583 2.76025 21.6379C-2.82555 30.0364 2.14425 44.6418 12.8714 43.2784L14.3564 42.8513Z" fill="url(#paint20_linear_196_8980)"/>
<path d="M10.0322 37.8265C10.36 35.9797 19.3778 34.8134 20.2842 31.6737C20.6802 28.5128 21.7582 28.1631 24.3234 27.8792L24.3366 26.2882L23.934 25.9033C22.9535 26.2074 21.9535 26.4348 20.942 26.5838C20.3392 26.605 19.4108 26.6167 18.8256 26.7716L18.6122 27.6985C18.9026 28.3391 19.2018 30.6505 19.2018 30.6505C19.1591 31.0829 19.093 31.5123 19.0038 31.9365C16.2626 34.2033 12.483 34.3582 9.46677 36.1135L9.29297 36.6673L10.0322 37.8265Z" fill="#F28773"/>
<path d="M16.5948 41.9757C5.76642 42.9941 0.684418 28.018 5.27142 18.6973C5.27142 18.6973 3.66102 20.0395 3.46742 20.3587C1.31142 23.8856 0.154218 26.5256 0.508418 31.308L1.11122 34.6308C1.46322 35.4263 2.13862 36.8765 2.13862 36.8765C3.84802 41.4946 9.15662 44.4373 13.693 43.0153L14.7952 42.79L16.5948 41.9757Z" fill="url(#paint21_linear_196_8980)"/>
<path d="M14.8416 27.4357C15.5544 28.3391 15.1738 29.489 14.34 30.5896C13.4028 31.8262 11.7506 31.9459 10.8794 31.0683C10.2172 30.4018 10.0258 28.9633 11.5284 27.6C12.8 26.4478 14.2432 26.6684 14.8416 27.4357Z" fill="url(#paint22_linear_196_8980)"/>
<path d="M12.2799 20.8865C13.1885 21.8862 13.5119 24.2422 11.2283 26.6827C9.57169 28.452 6.36189 30.51 4.15969 27.9264C2.55809 26.0491 4.21909 23.1275 5.79649 21.6374C7.01529 20.4876 10.4429 18.8614 12.2799 20.8865Z" fill="url(#paint23_linear_196_8980)"/>
<path d="M11.334 36.7591L13.2766 38.343L15.9166 37.6578L16.2906 33.9736L11.6068 35.4098L11.334 36.7591Z" fill="#564341"/>
<path d="M13.3073 38.1202L12.8145 40.8728L15.5447 39.7605L15.9473 37.3975L13.3073 38.1202Z" fill="#7D7C7D"/>
<path d="M13.3081 38.1198L11.3347 36.7588L10.9629 38.9012L12.8153 40.8724L13.3081 38.1198Z" fill="#989697"/>
<path d="M14.5644 14.0508L14.1992 15.9586L17.9678 16.7987L18.4188 14.3347L14.5666 14.0508H14.5644Z" fill="#564341"/>
<path d="M10.0605 13.6422L22.1099 14.3462L24.8005 13.2433L25.9665 4.55142L23.2275 2.11798L20.7173 1.81292L20.0573 2.40896L19.1047 2.70698L18.1059 2.67882L17.2149 2.68351L16.4295 2.55445L15.7783 2.40426L15.2371 2.22592L14.8081 1.9279L14.3527 1.61815L14.1107 1.13944L10.2981 0.832031L11.0813 3.45555L10.0605 13.6399V13.6422Z" fill="#B6B6B6"/>
<path d="M17.7052 6.3351L15.668 8.18893L17.571 9.77993L16.328 11.9435L20.0152 10.9392L18.5412 8.70518L18.2926 8.1725L19.54 6.24828L18.8712 6.06055L17.7052 6.33275V6.3351Z" fill="#FFED7E"/>
<path d="M10.1667 0.888672L7.85013 2.36235L7.42773 5.15951L10.9257 3.34793L10.1645 0.888672H10.1667Z" fill="#B6B6B6"/>
<path d="M11.1389 3.55404L9.95087 13.6093L7.75307 12.0723L6.85547 10.2396L7.38567 5.35859L11.1389 3.55169V3.55404ZM14.0715 1.06428L14.8085 1.91375L16.8413 2.59427L18.8147 2.62243C19.4417 2.43001 20.0093 2.39481 20.4647 1.86682L20.5461 1.45147C19.5891 0.505784 18.0381 0.482318 16.8061 0.407227L14.8217 0.53629L14.0737 1.06428H14.0715Z" fill="#979797"/>
<path d="M17.5557 0.0321922C19.1397 0.163603 20.4927 0.724444 20.7721 1.43547L23.2141 1.77104C23.2427 1.77338 23.2691 1.78277 23.2933 1.7945C23.5639 1.90479 24.1755 2.36942 24.9433 3.01005C25.2549 3.26722 25.5594 3.53407 25.8563 3.81024C25.9795 3.92758 26.0719 4.02144 26.1291 4.09419C26.1836 4.1559 26.2216 4.23207 26.2391 4.31477C26.3029 4.37813 26.3381 4.47199 26.3271 4.57055V4.59636L26.3183 4.67615L26.2875 4.97417C26.0919 6.86768 25.8792 8.75914 25.6495 10.6483C25.5021 11.8099 25.3745 12.7063 25.2689 13.2812C25.2161 13.5651 24.7629 13.7974 23.7817 14.194L23.7157 14.2198L23.6717 14.2386C22.9743 14.5155 22.3473 14.7197 22.1405 14.7197C21.9051 14.7197 21.0185 14.6657 18.6579 14.5132L18.3807 16.5007C20.7743 17.3878 22.9325 18.8919 24.5627 20.9007L24.5539 20.8913L24.5979 20.9405C25.1014 21.4695 25.5405 22.0639 25.9047 22.7099C26.4767 22.2805 27.0795 21.9895 27.6867 21.8745C30.4873 21.3418 32.8479 22.3696 33.8027 24.4464C33.8775 23.9724 33.9479 23.3904 34.0051 22.7967L34.0117 22.7287L34.0183 22.663L34.0249 22.5973L34.0381 22.4518C34.0711 22.0622 34.0711 21.7079 34.0249 21.3183C34.0183 21.2785 33.9853 21.2221 33.9237 21.1517L33.6971 21.1353L33.6751 21.133C33.5827 21.1236 33.4859 21.1142 33.3143 21.1072L33.2549 21.1048C31.2551 21.018 30.2211 20.9523 29.3367 20.8303L29.2707 20.8209L29.2399 20.8162L29.1739 20.8068L29.0177 20.7833C27.6801 20.5674 26.9057 20.2178 26.6593 19.5537C26.4503 18.9882 26.6505 18.3381 27.1257 17.606C27.4337 17.1296 27.8033 16.6908 28.2829 16.184C29.0617 15.3579 30.4873 14.1752 31.9701 13.1662C33.8533 11.8873 35.6969 10.9604 37.3117 10.5732C39.3951 10.071 41.1001 9.97481 41.4257 10.6718C41.6149 11.0754 41.3949 11.5048 40.8845 12.1149C40.5325 12.5373 40.0265 13.0465 39.3709 13.6496C38.9173 14.0692 38.4559 14.4791 37.9871 14.8792L37.6725 15.1538L37.6505 15.1726L37.6285 15.1913L37.6175 15.2007L37.5603 15.2477L37.3007 15.4753L37.2919 15.4823L37.3535 15.4753C37.984 15.3912 38.6191 15.3536 39.2543 15.3626L39.3357 15.365C40.2047 15.3931 40.9373 15.5457 41.5181 15.8625C41.8659 16.037 42.1661 16.3035 42.3902 16.6365C42.6143 16.9696 42.7549 17.3583 42.7985 17.7656C43.0031 19.3965 41.1925 21.6516 38.6823 23.2965C39.5645 23.32 40.4247 23.5688 41.0275 24.0733C41.7923 24.7067 42.3703 25.5611 42.6929 26.5349C42.95 27.3094 43.0795 28.1256 43.0757 28.9472C45.6101 27.504 48.9981 27.5557 51.5831 29.0129C54.5311 30.6743 55.7785 33.7366 54.5003 37.3058C54.4444 37.489 54.3398 37.6509 54.1992 37.7717C54.0586 37.8926 53.888 37.9671 53.7083 37.9864C53.7149 38.0239 53.7193 38.0615 53.7215 38.1014C53.7204 38.4377 53.6345 38.7676 53.4729 39.0564C53.175 39.6121 52.8096 40.1234 52.3861 40.577C50.7141 42.4614 47.6275 42.865 45.2889 41.6377L45.0689 41.5227L45.0381 41.5063L45.0205 41.4969L45.0007 41.4875L44.9831 41.4781L44.7499 41.3585C44.5409 41.2482 44.3605 41.152 44.1999 41.0534C44.2138 42.4957 43.9673 43.9273 43.4739 45.2703L43.4409 45.3594L43.4189 45.4298L43.3661 45.5871C43.746 45.7651 44.1129 45.9729 44.4639 46.2089C44.9296 46.5424 45.3412 46.9546 45.6827 47.4292C45.882 47.7154 46.0516 48.0238 46.1887 48.349C46.3977 48.8653 46.4395 49.3017 46.1843 49.6326C45.9555 49.9283 45.5859 49.9799 45.1415 49.8837C45.3339 50.2554 45.4923 50.6459 45.6145 51.05C45.7773 51.6319 45.7333 52.1013 45.3615 52.3946C45.2229 52.5049 45.0249 52.5283 44.7961 52.4908C45.1833 53.3989 45.1613 54.2883 44.5299 54.6215C44.1889 54.8022 43.7863 54.7436 43.1417 54.5042C43.0229 54.462 42.7105 54.3329 42.3717 54.1921L42.3343 54.178L42.2661 54.1499L42.1385 54.0982L42.1209 54.0912L42.0835 54.0748L41.2915 53.7509C40.6201 53.4848 39.932 53.2692 39.2323 53.1056L38.8319 53.0117L38.3743 52.9108C37.6285 52.7536 36.9883 52.6527 36.3767 52.6175C35.9543 52.5917 35.5671 52.5987 35.2173 52.641C35.1672 52.6479 35.1163 52.6439 35.0677 52.6293C33.5407 52.9986 31.9751 53.1548 30.4103 53.0939C28.7801 53.0329 27.9045 52.9625 26.9783 52.7771C26.721 52.7266 26.4656 52.6656 26.2127 52.5941C25.3899 52.3993 23.2163 52.709 21.8347 53.176C21.4648 53.2979 21.0905 53.4044 20.7127 53.4952L19.1331 53.8636L19.0451 53.8847L19.0209 53.8894L18.8955 53.9199L18.8449 53.9316L18.7943 53.9434C18.2399 54.0724 17.7075 54.2015 17.4215 54.2766C17.1898 54.3369 16.9588 54.4002 16.7285 54.4667L16.4315 54.5558L16.1015 54.6497C15.8307 54.7262 15.5577 54.7943 15.2831 54.8538C14.2843 55.0674 13.5737 55.0627 13.1205 54.7013C12.7531 54.4103 12.6211 53.941 12.6761 53.352C12.7201 52.8944 12.8741 52.3477 13.1337 51.7C13.3295 51.2119 13.7585 50.5572 14.2447 49.9588L14.2645 49.933L14.2425 49.9377C13.9972 50.0068 13.7529 50.0803 13.5099 50.1583L13.4373 50.1817L13.4087 50.1888L12.8873 50.3483L12.8785 50.353H12.8741L12.8389 50.3624L12.8279 50.3671L12.7883 50.3765L12.7113 50.4L12.6673 50.4094L12.6035 50.4258C12.1767 50.5361 11.8841 50.5619 11.6047 50.4727C11.4521 50.4226 11.3141 50.3316 11.204 50.2083C11.0938 50.0851 11.0152 49.9337 10.9755 49.7687C10.8875 49.7453 10.7885 49.7171 10.6785 49.6749C9.82053 49.3628 9.03073 48.9099 7.77673 48.0721C7.44233 47.8468 6.36873 47.5089 5.95513 47.455C5.15433 47.3517 3.71113 47.7647 3.09953 48.2129C2.92908 48.453 2.7782 48.7081 2.64853 48.9756L2.63313 49.0108L2.57153 49.1422L2.55393 49.1821L2.53633 49.222C2.46373 49.3815 2.39333 49.5341 2.36913 49.574C2.27013 49.75 2.14253 49.8556 1.95993 49.8649C1.76853 49.8743 1.62993 49.7546 1.53093 49.5693C1.46493 49.4472 1.40993 49.2853 1.36153 49.0859C1.26573 48.6358 1.21193 48.1768 1.20093 47.7154C1.15913 46.5116 1.31533 45.4298 1.68493 44.9183C2.21293 44.1908 3.02693 43.6746 4.31393 43.1137C4.57353 43.0011 5.56573 42.5928 5.78573 42.4966C5.98593 42.4097 6.15973 42.3276 6.30713 42.2525C4.62193 41.2435 3.18753 39.7182 2.11173 37.8174C-0.763673 32.7393 -0.638273 25.9529 2.77833 20.9757C5.22913 17.4042 9.18913 15.5105 13.5429 15.5856C13.7035 15.5879 13.8619 15.595 14.0203 15.602L14.2843 14.2316L11.7147 14.0673L11.6311 14.0603C10.9183 14.0133 10.4277 13.9852 10.0361 13.9664C9.98113 13.9617 9.93493 13.9429 9.89313 13.9171C8.94713 13.4196 7.90213 12.6828 7.57873 12.3378C7.13873 11.8709 6.60193 10.2822 6.60193 9.70964C6.60193 8.83904 6.80213 7.19407 7.13213 5.11027L7.17613 4.85214L7.18713 4.7747L7.19373 4.73716L7.20473 4.66207L7.22893 4.51188L7.24213 4.43679L7.25533 4.3617L7.25973 4.33354L7.26853 4.27957C7.37853 3.61782 7.48853 2.98893 7.55453 2.6299L7.56113 2.60174L7.60953 2.35534L7.61393 2.34361L7.61613 2.32953C7.67773 2.12537 7.97913 1.91418 8.82613 1.37915C9.23263 1.12115 9.64336 0.870804 10.0581 0.628233L10.1329 0.583647L10.1615 0.567221C10.2099 0.539061 10.2649 0.527328 10.3177 0.532022H10.3507C10.8936 0.563053 11.4363 0.598253 11.9787 0.637619C12.6008 0.681325 13.2226 0.727475 13.8443 0.77607H13.8619C13.9544 0.633215 14.0813 0.519696 14.2293 0.447543C14.4427 0.330213 14.7353 0.234001 15.0917 0.15891C15.7957 0.00872605 16.6977 -0.0428995 17.5557 0.0321922ZM18.9329 48.1097L18.8977 48.112L18.8801 48.1144L18.8405 48.1191H18.8207L18.7811 48.1261L18.6843 48.1378L18.6051 48.1472C18.3158 48.1808 18.0286 48.2325 17.7449 48.3021C17.2741 48.4241 16.4139 48.9193 15.8441 49.398C15.1093 50.0128 14.1149 51.2846 13.8223 52.0144C13.3691 53.1525 13.3031 53.8518 13.5693 54.0607C13.7893 54.2367 14.3437 54.239 15.1357 54.0701C15.506 53.9911 15.873 53.8956 16.2357 53.7838L16.5305 53.697C17.2143 53.4977 17.904 53.3224 18.5985 53.1713L18.6865 53.1479L18.7723 53.1291L18.8163 53.1173L18.9043 53.0986L19.0891 53.054L19.1331 53.0446C19.8261 52.8803 20.4443 52.7395 20.5411 52.7161C20.9811 52.6058 21.3265 52.5096 21.6081 52.4134C22.5191 52.1201 23.4538 51.9182 24.3999 51.8103C24.0848 51.6214 23.7847 51.4056 23.5023 51.165C23.2022 50.8918 22.932 50.5832 22.6971 50.2451C22.4943 49.9562 22.2738 49.6818 22.0371 49.4238L22.0195 49.405L21.9975 49.3862C21.9234 49.3086 21.8463 49.2343 21.7665 49.1633C21.2577 48.7252 20.6997 48.3563 20.1055 48.0651H20.1099C20.0153 48.0346 19.4983 48.051 18.9329 48.1097ZM40.6051 50.4821C40.1273 50.5043 39.6607 50.6432 39.2411 50.8881C39.2071 50.9055 39.1707 50.9174 39.1333 50.9233C38.8523 51.1029 38.5646 51.2704 38.2709 51.4254L38.1939 51.4653C37.8925 51.6226 37.5823 51.7704 37.2633 51.9041C37.8428 51.9847 38.4183 52.0943 38.9881 52.2327L39.1531 52.2679L39.1971 52.2796L39.3885 52.3218C40.1079 52.4861 40.7965 52.709 41.5445 53C41.8255 53.112 42.1056 53.2262 42.3849 53.3426L42.5081 53.3919L42.5587 53.4154L42.5939 53.4271C42.9459 53.5726 43.2715 53.7087 43.3859 53.7486C43.8435 53.9175 44.1009 53.9551 44.1955 53.9058C44.3099 53.8448 44.3517 53.5257 44.1999 53.0493C44.0284 52.5475 43.7497 52.0952 43.3859 51.7282L43.3903 51.7328L43.3815 51.7258L43.3551 51.7C43.2451 51.585 43.1219 51.4794 42.9943 51.3809C42.1341 50.7191 41.3443 50.4539 40.6051 50.4821ZM32.7731 34.7738C32.3111 35.7336 31.7237 36.5573 30.9823 37.2448L30.9449 37.28L30.9097 37.3129C29.5325 38.6223 27.6647 38.9086 25.9619 38.214L25.9113 38.1905C24.6573 37.6625 23.6673 36.6676 23.1789 35.4379C21.7665 38.3994 19.5049 40.8821 16.6691 42.3088L16.6911 42.7312C16.6911 43.0738 16.7197 43.3507 16.8033 43.6628C16.9093 44.1091 17.1624 44.4997 17.5161 44.7634C17.7437 44.9298 17.9598 45.1133 18.1629 45.3125L18.1805 45.3219C18.2584 45.3608 18.3213 45.4271 18.3587 45.5096C18.5068 45.6622 18.6513 45.8187 18.7921 45.9789L18.8097 45.9977L18.8251 46.0141L18.8405 46.0306L18.8559 46.047L19.0671 46.2817L19.0979 46.3169C19.2607 46.4952 19.3817 46.6219 19.4983 46.7369C19.7117 46.9411 19.8943 47.0795 20.0659 47.164C21.0251 47.6263 21.7181 48.0768 22.2483 48.5532C22.6443 48.9052 22.8203 49.1211 23.2845 49.75C23.4886 50.0448 23.7233 50.314 23.9841 50.5525C24.0787 50.6346 24.1777 50.7168 24.2877 50.7965C25.1149 51.3973 26.0257 51.7704 27.1169 51.991C27.9969 52.167 28.8417 52.235 30.4367 52.296C33.0833 52.3899 35.7167 51.8643 37.8661 50.7473C40.2487 49.5083 41.9427 47.6028 42.7347 45.0919L42.7369 45.0825L42.7413 45.0708C43.3135 43.5286 43.5435 41.8661 43.4134 40.2134C43.2832 38.5606 42.7965 36.9623 41.9911 35.5435C41.6839 36.3204 41.2767 37.0479 40.7811 37.7048C39.8527 38.9156 38.7131 39.6478 37.3689 39.7017C36.1699 39.7487 34.4825 38.8499 33.7037 37.6039C33.2197 36.8295 32.9887 36.1255 32.7731 34.7738ZM42.2397 47.8938L42.2265 47.9172C41.7954 48.5647 41.2948 49.1561 40.7349 49.6796C41.5929 49.6866 42.4949 50.0128 43.4321 50.7308C43.5861 50.8482 43.7313 50.9796 43.8677 51.1157C44.1066 51.3239 44.3727 51.4939 44.6575 51.6202C44.7741 51.6671 44.8731 51.7 44.9457 51.7094H44.9435V51.707C44.9655 51.6413 44.9589 51.5146 44.9039 51.3058L44.8973 51.2776C44.7687 50.8724 44.6044 50.4811 44.4067 50.109C44.2521 49.7771 44.06 49.4666 43.8347 49.1844C43.7184 49.0422 43.595 48.9067 43.4651 48.7785C43.1054 48.4133 42.6913 48.1143 42.2397 47.8938ZM14.2293 46.0611C13.7912 46.2663 13.3876 46.547 13.0347 46.8918C13.0102 46.9265 12.9805 46.9566 12.9467 46.9809C12.5919 47.3544 12.2936 47.7842 12.0623 48.2552L12.0293 48.3232L12.0205 48.3396L12.0051 48.3701L11.9897 48.4006C11.7983 48.7996 11.6465 49.2032 11.6597 49.344C11.6817 49.5951 11.7345 49.6772 11.8247 49.7077C11.9391 49.7429 12.1261 49.7265 12.4297 49.6491L12.6035 49.6021L12.6893 49.5787L13.1359 49.4402L13.1601 49.4332L13.2107 49.4167L13.2371 49.4097L13.2635 49.4003L13.2899 49.3933L13.3471 49.3768C13.5958 49.3001 13.8452 49.2258 14.0951 49.1539C14.5681 49.0225 14.9443 48.9357 15.2237 48.9052L15.3799 48.7691C16.0267 48.2247 16.9793 47.6779 17.5645 47.5254C17.9539 47.4221 18.4775 47.347 18.9681 47.3024C18.8361 47.1734 18.7041 47.0326 18.5259 46.8355L18.3279 46.6172L18.3147 46.6008L18.2927 46.5773L18.2641 46.5445C18.1783 46.4506 18.0969 46.3567 18.0551 46.3145C17.9473 46.1972 17.8461 46.0916 17.7471 45.993C16.8627 45.6246 15.0785 45.6551 14.2293 46.0611ZM9.50593 43.4728L9.50373 43.4751C9.29422 43.6264 9.08301 43.7751 8.87013 43.921L8.83493 43.9444C8.57686 44.1218 8.31799 44.2978 8.05833 44.4724L8.00333 44.5076L7.98353 44.5217L7.97253 44.5287L7.95933 44.5358C6.48533 45.3102 5.03993 46.2558 4.08953 47.11C4.75833 46.9012 5.49313 46.7885 6.02553 46.8566C6.50953 46.9199 7.66013 47.2837 8.07813 47.5606C9.29693 48.3772 10.0581 48.8113 10.8611 49.107L10.9315 49.1328C11.0129 48.647 11.3275 47.9524 11.6465 47.4292L11.4221 47.4808C10.6191 47.645 10.0251 47.5723 9.71933 47.0772C9.36293 46.4999 9.65773 45.7912 10.3243 45.0145C10.7819 44.4818 11.4287 43.9303 11.8181 43.7145L12.0051 43.6136C11.1493 43.6722 10.3155 43.6253 9.50593 43.4728ZM43.0823 46.3262L43.0691 46.3591C42.943 46.6517 42.8035 46.9376 42.6511 47.2156C43.1153 47.4503 43.5707 47.7929 43.9733 48.1918C44.1603 48.3772 44.3187 48.5508 44.4573 48.7268L44.4793 48.7456C44.6662 48.8709 44.8673 48.9703 45.0777 49.0413C45.2178 49.0906 45.3637 49.1183 45.5111 49.1234C45.5573 49.1234 45.5947 49.1187 45.6167 49.1093L45.6079 49.1117V49.0507L45.6057 49.0366C45.5947 48.9404 45.5617 48.8113 45.5001 48.6658C45.3967 48.4124 45.2339 48.1261 45.0799 47.9032C44.7879 47.5019 44.4373 47.1533 44.0415 46.8707C43.8347 46.7205 43.3595 46.4553 43.0823 46.3262ZM6.90113 42.581L6.89673 42.5834C6.87913 42.6069 6.85713 42.6233 6.83073 42.6374C6.56185 42.7947 6.28412 42.9342 5.99913 43.0551C5.89133 43.102 5.61193 43.2193 5.31933 43.339L5.28853 43.3531L5.22693 43.3765C4.93433 43.4986 4.64613 43.6182 4.52733 43.6722C3.32833 44.1932 2.58033 44.6695 2.13153 45.2867C1.86753 45.6504 1.72893 46.6243 1.76633 47.692C1.78173 48.173 1.83453 48.6189 1.90933 48.9404C1.92253 48.9967 1.93793 49.0507 1.95333 49.0976L1.95773 49.114L1.96213 49.1023L2.06773 48.8676L2.08313 48.8348L2.20853 48.5743C2.45152 48.1083 2.74786 47.6764 3.09073 47.2884C3.99493 46.2441 5.79233 45.0074 7.65353 44.0266L7.70413 43.9984L7.69533 44.0031H7.69753L7.70193 43.9984L7.75693 43.9632C8.0158 43.7905 8.27321 43.6152 8.52913 43.4376L8.56433 43.4141L8.73593 43.2968C8.10327 43.1223 7.48803 42.8826 6.89893 42.581H6.90113ZM13.9631 43.6886C13.3075 43.8764 12.6079 44.1767 12.1635 44.4255C11.3363 44.8831 10.1307 46.2864 10.3463 46.6383C10.4211 46.7604 10.7599 46.8026 11.2835 46.6947C11.4881 46.6524 11.7103 46.5914 11.9435 46.5163C12.0843 46.4694 12.2207 46.4225 12.3637 46.3685L12.5221 46.3075C12.9357 45.902 13.4092 45.5722 13.9235 45.3313C14.5857 45.0145 15.6439 44.8854 16.6053 44.9535C16.3223 44.5911 16.1273 44.1599 16.0377 43.698L16.0333 43.6957C15.6043 43.4188 14.8717 43.4305 13.9653 43.6863L13.9631 43.6886ZM3.27113 21.3606C0.00632718 26.1219 -0.116873 32.622 2.63313 37.4818C3.96633 39.8332 5.86933 41.5696 8.11113 42.4097C8.56007 42.5797 9.02046 42.713 9.48833 42.8087C9.52793 42.8063 9.56973 42.8134 9.60713 42.8321C11.6267 43.2099 13.8267 42.9025 16.1191 41.8606L16.2027 41.8207L16.3655 41.7433C21.6565 39.1057 24.8795 32.6103 24.0809 26.3589L23.6959 26.4551C22.6795 26.7109 21.6719 26.8188 20.0043 26.901C19.9647 26.9056 19.9295 26.9056 19.8811 26.908L19.8195 26.9103H19.7623C19.2739 26.9291 19.0671 26.9573 18.9329 27.03C18.8317 27.0863 18.8119 27.1708 18.9175 27.4641C19.0187 27.7457 19.2101 28.6726 19.3839 29.616L19.4059 29.7333L19.4103 29.7638L19.4323 29.8741L19.4411 29.9281L19.4609 30.0384L19.6017 30.8667C19.7579 31.8124 19.1793 32.5727 18.0177 33.2133C17.5574 33.4641 17.081 33.6798 16.5921 33.8587V33.9291L16.5855 33.9783C16.5596 34.2648 16.5325 34.5511 16.5041 34.8372C16.4394 35.5168 16.369 36.1958 16.2929 36.8741C16.2269 37.4443 16.1653 37.9535 16.1059 38.3853C15.9871 39.2535 15.8925 39.7416 15.7825 39.9247C15.6615 40.1241 15.1049 40.4339 14.4141 40.7296C13.6485 41.0581 13.0611 41.2294 12.7707 41.1285C12.4913 41.0346 12.0359 40.6498 11.5673 40.157C11.0723 39.6337 10.7489 39.1996 10.7313 38.9321C10.7181 38.7209 10.8105 38.0943 10.9865 37.09C11.0628 36.644 11.1435 36.1989 11.2285 35.7547L11.2725 35.5271C10.4695 35.8157 9.97453 36.0621 9.68633 36.3273C9.54773 36.454 9.53233 36.5338 9.59393 36.6793C9.67533 36.8741 9.88213 37.1252 10.2671 37.51C10.3202 37.5703 10.3497 37.6499 10.3499 37.7325C10.35 37.8152 10.3207 37.8949 10.2679 37.9554C10.2151 38.0159 10.1427 38.0528 10.0653 38.0585C9.988 38.0643 9.91151 38.0385 9.85133 37.9864C9.40913 37.5452 9.16493 37.2472 9.03733 36.9492C8.86133 36.5362 8.94493 36.1466 9.28813 35.8322C9.83373 35.3323 10.7951 34.9545 12.7069 34.3914L14.1743 33.9619C15.8903 33.4574 16.9331 33.0819 17.7383 32.6361C18.6887 32.1104 19.0979 31.5731 19.0011 30.9817C18.9417 30.625 18.8691 30.2073 18.7921 29.7896L18.7723 29.684L18.7679 29.6582L18.7591 29.6043C18.5985 28.7454 18.4291 27.9241 18.3455 27.6965C18.1387 27.1192 18.2443 26.678 18.6535 26.4527C18.9021 26.3119 19.1463 26.2814 19.7425 26.2603H19.7975L19.8569 26.258L19.9757 26.2509C21.6081 26.1688 22.5849 26.0632 23.5551 25.8215L24.0171 25.7065L24.3823 25.6127L24.4527 25.5962H24.4637L24.5033 25.5845H24.5099C24.6111 25.5516 24.7299 25.5258 24.8795 25.4977C24.8949 25.4977 24.8949 25.4977 24.9081 25.493C25.1281 25.4554 25.2161 25.432 25.2777 25.3944L25.2711 25.3991L25.2931 25.385C25.8761 24.9861 25.9575 24.376 25.6143 23.5336L25.5989 23.4937C25.3019 22.785 24.7299 21.9918 24.1161 21.3465L24.1073 21.3371L24.0985 21.3277C21.5377 18.1692 17.5953 16.306 13.5341 16.2356C9.36953 16.1652 5.59873 17.9697 3.27113 21.3606ZM15.9431 42.6444L15.9035 42.6585L15.7099 42.7383C15.7879 42.752 15.8651 42.7709 15.9409 42.7946C15.9404 42.7437 15.9404 42.6929 15.9409 42.6421L15.9431 42.6444ZM43.1285 29.6043L43.0669 29.6441C42.9884 31.3187 42.7316 32.9782 42.3013 34.5908L42.3321 34.6331C43.408 36.3257 44.0434 38.2927 44.1735 40.333C44.4111 40.4972 44.6795 40.6521 44.9963 40.8164L45.2537 40.9478L45.3021 40.9736L45.5397 41.098C47.6671 42.215 50.4853 41.8442 51.9769 40.1617C52.3638 39.7472 52.6988 39.281 52.9735 38.7748C53.2331 38.2492 53.2199 37.9559 52.9295 37.8104C52.8657 37.7775 52.7975 37.7353 52.7051 37.6743L52.5907 37.5945L52.5753 37.5851L52.4763 37.517C52.2035 37.3364 52.0099 37.2495 51.8405 37.2425C51.7107 37.2378 51.5985 37.2847 51.4885 37.4021C51.3887 37.5082 51.2988 37.6246 51.2201 37.7494L51.2091 37.7681L51.1541 37.8596L51.1277 37.9019L51.0463 38.0356C50.982 38.1522 50.8959 38.2534 50.7933 38.3329C50.6907 38.4125 50.5739 38.4686 50.4501 38.4979C50.0211 38.6059 49.6361 38.4885 49.2841 38.1858C49.0333 37.9699 48.8375 37.7165 48.5207 37.2354C48.4528 37.1336 48.3846 37.0319 48.3161 36.9304C48.0411 36.5197 47.8541 36.3109 47.6759 36.2264C47.0159 35.919 46.7167 35.8955 46.2745 36.0035L46.2371 36.0129L46.1997 36.0222L46.1227 36.0387C45.4847 36.1795 44.9347 35.926 43.7401 34.8184C43.6865 34.7654 43.6542 34.6921 43.6503 34.6142C43.6464 34.5363 43.6711 34.4598 43.7191 34.4009C43.7672 34.342 43.8348 34.3054 43.9077 34.2988C43.9806 34.2922 44.0531 34.3161 44.1097 34.3655C44.7103 34.9217 45.1349 35.2385 45.4429 35.3816C45.6176 35.4761 45.8183 35.5003 46.0083 35.4497C46.0422 35.4424 46.0759 35.4345 46.1095 35.4262L46.1469 35.4168C46.7035 35.2784 47.1303 35.3136 47.9025 35.6749C48.2061 35.8157 48.4437 36.0833 48.7759 36.5784L48.8793 36.7333L48.9739 36.8741L48.9783 36.8858L48.9827 36.8882C49.5503 37.7517 49.8693 38.0263 50.3203 37.9136C50.4369 37.8831 50.4897 37.8362 50.5799 37.6977C50.5953 37.6743 50.7185 37.4631 50.7669 37.3903C50.8637 37.2425 50.9649 37.1087 51.0881 36.9773C51.1872 36.8654 51.3075 36.7773 51.4411 36.719C51.5746 36.6607 51.7183 36.6336 51.8625 36.6394C52.1551 36.6511 52.4257 36.7732 52.7755 37.0055L53.0065 37.1651C53.0875 37.2234 53.1728 37.2744 53.2617 37.3176C53.6049 37.4654 53.8645 37.3997 53.9745 37.0923C54.5817 35.3934 54.5795 33.8422 54.0361 32.507C53.5367 31.2821 52.5863 30.2613 51.3191 29.5456C48.8221 28.1376 45.5111 28.1306 43.1285 29.6043ZM16.0113 34.0652L15.9893 34.0722C15.5119 34.2365 14.9685 34.4054 14.3393 34.5885L14.0533 34.6729C14.0643 34.7128 14.0665 34.7551 14.0599 34.7973L13.2569 40.5113L13.3669 40.4808C13.9276 40.3037 14.4718 40.072 14.9927 39.7886C15.1034 39.7273 15.2107 39.6591 15.3139 39.5844C15.3293 39.5375 15.3645 39.4108 15.3997 39.2324L15.4019 39.209C15.4459 38.979 15.4965 38.6716 15.5471 38.2961C15.6065 37.8737 15.6681 37.3692 15.7319 36.8013C15.8344 35.8904 15.9275 34.9783 16.0113 34.0652ZM13.4835 34.8396L12.8675 35.0202C12.5369 35.1161 12.2076 35.217 11.8797 35.323C11.8797 35.3464 11.8797 35.3699 11.8753 35.3934L11.8687 35.4262C11.7554 36.0165 11.6469 36.6079 11.5431 37.2003C11.4349 37.7518 11.3519 38.3086 11.2945 38.8687V38.8781L11.3165 38.9203L11.3231 38.9297C11.3539 38.9884 11.4023 39.0611 11.4639 39.1456C11.5915 39.3146 11.7675 39.5211 11.9633 39.7276C12.2295 40.0092 12.5001 40.2555 12.7003 40.4081L13.4835 34.8396ZM42.3211 28.7243V28.7384C42.2111 29.7873 41.9757 30.8855 41.5863 32.04C41.1023 33.4644 39.9055 35.161 38.4579 35.9284C37.7313 36.2727 36.951 36.47 36.1567 36.5103C35.2019 36.5526 34.3703 36.3273 33.7411 35.7782C33.8628 36.2715 34.0614 36.7396 34.3285 37.1627C34.9621 38.1717 36.3987 38.9414 37.3425 38.9039C38.4425 38.857 39.3973 38.2468 40.1981 37.2003C40.7579 36.4586 41.1919 35.6184 41.4807 34.7175C42.0131 32.9763 42.3673 30.4467 42.3233 28.8205L42.3211 28.7266V28.7243ZM32.6807 24.0733L32.6895 24.1202C32.9975 26.0726 32.8765 28.2737 32.0339 30.7611C31.5499 32.1879 30.3553 33.8821 28.9077 34.6518C28.3577 34.9428 27.2225 35.2432 26.2413 35.2526C25.1787 35.2619 24.2877 34.9616 23.6717 34.2951L23.6497 34.3538C23.8917 35.7266 24.8597 36.8881 26.1863 37.449C27.6603 38.0708 29.2729 37.8245 30.4477 36.6816L30.4543 36.6746C31.6203 35.6046 32.3793 34.1637 32.8435 32.3076C33.2065 30.8573 33.3649 29.4118 33.4991 26.9502C33.5629 25.7887 33.2571 24.8101 32.6807 24.0733ZM36.8453 24.437C36.7836 24.4639 36.722 24.4913 36.6605 24.5191L36.5725 24.5614C35.4505 25.087 34.4561 25.7347 34.2735 26.1758L34.2691 26.1899L34.2449 26.2439C34.2603 26.4856 34.2625 26.7367 34.2471 26.9972C34.2251 27.4477 34.1987 27.8654 34.1701 28.2573C34.9005 26.8024 36.0709 26.0679 37.2787 26.3964C38.7703 26.8047 39.4237 28.6914 38.9617 30.7494L38.9463 30.8128C38.4513 32.9247 36.9663 34.2482 35.5671 33.9572C34.6651 33.7695 33.9765 33.0561 33.6751 32.0518C33.5895 32.4373 33.4904 32.8193 33.3781 33.1969C33.3561 33.4269 33.4089 33.7273 33.5233 34.0558C33.5947 34.2578 33.6815 34.4533 33.7829 34.6401C34.2625 35.4309 35.0743 35.7571 36.1237 35.7101C36.8717 35.6773 37.7077 35.4332 38.1257 35.2127C39.3753 34.5486 40.4577 33.0162 40.8801 31.7678C41.6215 29.5761 41.7711 27.5955 41.5401 25.8285C41.2757 25.3983 40.9464 25.0177 40.5655 24.7022C39.6987 23.9794 38.0135 23.9184 36.8431 24.437H36.8453ZM27.8187 22.6606C27.2433 22.7881 26.7029 23.0547 26.2391 23.4397C26.4415 24.0052 26.4877 24.5285 26.3491 24.9791C26.8551 24.7069 27.4095 24.6318 27.9705 24.7843C29.4599 25.1926 30.1133 27.0793 29.6513 29.1373L29.6381 29.2006C29.1409 31.3126 27.6581 32.6361 26.2567 32.3451C25.5307 32.1926 24.9411 31.6998 24.5847 30.9888C24.4442 31.8204 24.2419 32.6388 23.9797 33.4363C24.4351 34.145 25.2095 34.4617 26.2347 34.4524C27.1015 34.4453 28.1245 34.1731 28.5733 33.9361C29.8251 33.272 30.9053 31.7397 31.3299 30.4913C32.1483 28.0672 32.2429 25.9506 31.9217 24.085C31.8931 23.9231 31.8645 23.7729 31.8315 23.618L31.8249 23.5922L31.7655 23.32C31.7589 23.2919 31.7567 23.2637 31.7567 23.2379C30.7491 22.5949 29.3741 22.3649 27.8187 22.6606ZM34.3879 29.8694C33.9655 31.6176 34.6431 32.9482 35.7101 33.1711C36.6803 33.3753 37.8353 32.331 38.2335 30.5617C38.6097 28.8815 38.1147 27.4501 37.0939 27.1708C36.0027 26.8728 34.8697 27.8889 34.3879 29.8694ZM25.0797 28.2573C24.6551 30.0055 25.3327 31.3361 26.3997 31.559C27.3721 31.7631 28.5271 30.7189 28.9231 28.9495C29.3015 27.2694 28.8043 25.8379 27.7835 25.5587C26.6923 25.2607 25.5615 26.2768 25.0775 28.2573H25.0797ZM25.1721 26.1054H25.1677C25.1193 26.1172 25.0687 26.1266 25.0093 26.136L24.9807 26.1406C24.8487 26.1641 24.7541 26.1876 24.6881 26.2087L24.6793 26.211L24.7013 26.4011C24.7233 26.5583 24.7387 26.7179 24.7519 26.8751C24.8708 26.6061 25.0114 26.3486 25.1721 26.1054ZM39.7625 10.9885C38.9921 11.0452 38.227 11.1668 37.4745 11.3523C35.9609 11.716 34.1877 12.6077 32.3705 13.8397C30.9317 14.8206 29.5501 15.9681 28.8109 16.7495C27.7835 17.8383 27.1763 18.7746 27.3567 19.2604C27.4667 19.5537 28.0519 19.8165 29.1299 19.9902C30.0583 20.1403 31.0725 20.2107 33.2835 20.3046C34.5419 20.3586 35.1535 20.3867 35.7057 20.4196L35.7893 20.4243L35.8971 20.429L35.9499 20.4337H35.9785L36.0313 20.4384L36.0863 20.4407L36.4031 20.4618C36.4691 20.4665 36.5131 20.4712 36.5571 20.4853C36.5945 20.497 36.6253 20.5111 36.6627 20.5369C36.7617 20.605 36.8387 20.7153 36.8387 20.8795C36.8387 21.0321 36.7727 21.1306 36.6847 21.1987C36.6561 21.2221 36.6275 21.2409 36.5967 21.2526C36.5094 21.2857 36.4184 21.307 36.3261 21.316L35.9851 21.3629L35.9631 21.3676L35.9389 21.37L35.8553 21.3817L35.5319 21.4286C35.3039 21.4629 35.0777 21.5099 34.8543 21.5694C34.7971 22.5667 34.6761 23.7307 34.5419 24.5825L34.5375 24.606H34.5463C34.7399 24.5191 34.9797 24.4088 35.2547 24.2751L35.3031 24.2516C35.5801 24.1151 35.8558 23.9759 36.1303 23.8339L36.2007 23.7987C36.6627 23.557 37.1203 23.313 37.4503 23.1252C40.1497 21.607 42.2243 19.2392 42.0571 17.8688C41.9141 16.7378 40.9571 16.2168 39.3115 16.1652C38.7109 16.1441 38.0861 16.1886 37.3447 16.2825L36.9905 16.3294L36.9597 16.3341H36.9443L36.9135 16.3388C36.7037 16.3683 36.4931 16.3917 36.2821 16.4092C36.2311 16.411 36.18 16.4055 36.1303 16.3928C36.0457 16.3744 35.9694 16.3263 35.9135 16.2561C35.8576 16.1858 35.8255 16.0976 35.8223 16.0056C35.8179 15.8836 35.8487 15.8085 35.9037 15.724L35.9785 15.6302L36.1567 15.4518C36.2733 15.3415 36.4295 15.2007 36.6583 15.0013L36.7243 14.9449L37.0961 14.6211L37.1379 14.5859L37.1489 14.5765L37.1709 14.5577L37.5141 14.2597C37.9731 13.8601 38.4278 13.4549 38.8781 13.0442C39.3882 12.5888 39.8716 12.1006 40.3257 11.5822C40.4684 11.419 40.5938 11.2396 40.6997 11.0472L40.7041 11.0402L40.6931 11.0378L40.6051 11.0144L40.5787 11.012C40.3088 10.975 40.0361 10.9672 39.7647 10.9885H39.7625ZM14.8541 14.2691L14.5901 15.6419C15.6918 15.7418 16.7804 15.9668 17.8373 16.313L18.0925 14.4827L15.8045 14.3325H15.7913L14.8541 14.2715V14.2691ZM11.4287 3.79851V3.80555C11.3542 4.3396 11.2808 4.87385 11.2087 5.40829C11.0481 6.60506 10.8963 7.77837 10.7621 8.86016C10.6205 9.96891 10.4936 11.0798 10.3815 12.1924C10.3417 12.5824 10.313 12.9737 10.2957 13.3657V13.3774H10.3221C11.2241 13.429 12.6497 13.5205 15.7231 13.7224L15.8265 13.7294H15.8397C20.3211 14.0227 21.8457 14.1189 22.1405 14.1189C22.1845 14.1189 22.3825 14.0673 22.6443 13.9781C23.2604 13.7701 23.8649 13.5249 24.4549 13.2436C24.5693 13.185 24.6595 13.1334 24.7189 13.0935L24.7255 13.0864H24.7299V13.0841C24.7572 12.9264 24.7829 12.7684 24.8069 12.6101L24.8157 12.5631C24.8949 12.0516 24.9851 11.3992 25.0819 10.6248L25.0885 10.5708C25.3283 8.60773 25.5483 6.64194 25.7485 4.6738C24.4285 4.57759 23.1965 4.49076 21.9733 4.41098L21.7555 4.3969C20.3698 4.30684 18.9838 4.22236 17.5975 4.14346L15.0389 4.00032L14.9685 3.99563L14.8673 3.99093L14.7969 3.98624L14.7199 3.98155L14.6077 3.97685L14.5307 3.97216L14.3657 3.96277L14.0797 3.94635L14.0093 3.94166L13.9125 3.93696L13.8487 3.93227L11.4287 3.79851ZM10.8655 3.73515L7.65353 5.43645C7.34993 7.3771 7.16513 8.91648 7.16513 9.70729C7.16513 10.132 7.65133 11.5658 7.97913 11.9131C8.21013 12.1619 8.96693 12.7063 9.73913 13.1521C9.75797 12.8112 9.78438 12.4709 9.81833 12.1313C9.93165 11.0126 10.0593 9.89546 10.2011 8.78038C10.4119 7.09694 10.6341 5.41515 10.8677 3.73515H10.8655ZM19.6017 5.68284C19.6523 5.68754 19.6985 5.70162 19.7447 5.72508C19.7943 5.74826 19.8373 5.78497 19.8694 5.83153C19.9014 5.87808 19.9214 5.93283 19.9273 5.99025C19.9559 6.28827 19.7997 6.57456 19.3003 7.32782L19.2739 7.37006C19.0583 7.69389 18.9659 7.83469 18.8933 7.96141L18.8823 7.98018L18.8405 8.05058C18.7975 8.12523 18.7607 8.20375 18.7305 8.28524H18.7283V8.28994L18.7415 8.3134L18.7481 8.33217C18.8361 8.5199 19.0099 8.75926 19.4323 9.3201L19.4983 9.40927C20.0901 10.1977 20.3167 10.5802 20.2991 10.958C20.2925 11.1129 20.2331 11.1739 20.1187 11.2467C20.0691 11.2769 20.0177 11.3036 19.9647 11.3265C19.8591 11.3734 19.7095 11.4344 19.5247 11.5001C18.6651 11.7936 17.793 12.0435 16.9111 12.2487C16.7175 12.2909 16.5591 12.3191 16.4425 12.3332C16.3721 12.3402 16.3149 12.3425 16.2643 12.3402C16.1367 12.3308 16.0421 12.2956 15.9739 12.1525C15.9035 12.007 15.9343 11.892 16.0113 11.7395C16.0509 11.6644 16.1059 11.5775 16.1807 11.4719C16.2401 11.3851 16.3127 11.2889 16.4095 11.1598L16.4271 11.1364L16.4381 11.12L16.5327 10.9979L16.5503 10.9745L16.6691 10.8196L16.7505 10.7093C16.8956 10.5222 17.0315 10.3272 17.1575 10.125C17.1949 10.064 17.2235 10.01 17.2433 9.96542L17.2499 9.95134H17.2477C17.2021 9.91638 17.1551 9.8835 17.1069 9.85278L17.0893 9.84105L17.0453 9.81289L17.0343 9.80585L16.7857 9.64863L16.7637 9.63455L16.7417 9.62047L16.7043 9.597L16.4337 9.4257C16.1987 9.27798 15.9744 9.11169 15.7627 8.92821C15.58 8.7842 15.4389 8.58821 15.3557 8.36268C15.3073 8.20311 15.3557 8.09986 15.4569 7.95906C15.5075 7.88866 15.5801 7.80653 15.6725 7.71267C15.9464 7.43498 16.2335 7.17259 16.5327 6.92655L16.5833 6.88431L16.6603 6.82095L16.6845 6.79749L16.7351 6.75759L16.7527 6.74352L16.7879 6.71301C17.0346 6.50694 17.2855 6.30665 17.5403 6.11228C17.6811 6.01137 18.1563 5.87996 18.6887 5.77671C18.9049 5.73339 19.123 5.70206 19.3421 5.68284C19.4455 5.67346 19.5313 5.67346 19.5995 5.68284H19.6017ZM19.2651 6.29297H19.2475C19.0289 6.32131 18.8116 6.36046 18.5963 6.4103L18.5523 6.41968C18.3172 6.46463 18.0856 6.52817 17.8593 6.60976C17.6987 6.72709 17.3753 6.98522 17.0519 7.25742L17.0189 7.28558L17.0013 7.29966L16.9683 7.32782L16.9507 7.3419L16.9177 7.37006L16.6713 7.58126C16.4217 7.79852 16.1817 8.02795 15.9519 8.26882L15.9453 8.27586L15.9519 8.2829C16.0007 8.34489 16.0544 8.40221 16.1125 8.4542L16.1279 8.46828C16.3177 8.63162 16.5184 8.77986 16.7285 8.91179L17.0211 9.09952L17.0805 9.13472L17.3313 9.29429L17.3577 9.31071L17.3841 9.32714C17.6943 9.5313 17.7955 9.61577 17.8307 9.79646C17.8857 10.0968 17.6987 10.4136 17.1927 11.0871L17.1091 11.1974L16.9859 11.3593L16.9617 11.3898C16.8919 11.4812 16.8222 11.5727 16.7527 11.6644L16.7505 11.6691L16.7725 11.6644L16.7989 11.6597C17.658 11.4596 18.5074 11.2152 19.3443 10.9275C19.4917 10.8759 19.6105 10.8313 19.6985 10.7914H19.7051V10.7844C19.6303 10.592 19.4279 10.2799 19.0781 9.81289L19.0561 9.78473L18.9923 9.69791C18.4423 8.97045 18.2927 8.75222 18.1849 8.46359C18.1079 8.25708 18.1783 8.05762 18.3565 7.74317L18.4005 7.66339L18.4137 7.64227L18.4203 7.63288L18.4313 7.61411C18.5083 7.4827 18.6073 7.33486 18.8141 7.02276L18.8405 6.98287C18.9893 6.76282 19.1288 6.53575 19.2585 6.30235L19.2651 6.29297ZM10.0735 1.30875L10.0581 1.31814C9.74178 1.50809 9.42717 1.70131 9.11433 1.89775C8.81733 2.08548 8.57093 2.2474 8.38833 2.37412C8.30681 2.43081 8.22755 2.49109 8.15073 2.5548L8.14633 2.5595L8.14413 2.56888L8.11773 2.70499L8.11333 2.72611L8.00553 3.31745C7.93073 3.74689 7.85153 4.21856 7.77233 4.70196L10.6917 3.15554C10.4491 2.55642 10.2434 1.94109 10.0757 1.31344V1.30875H10.0735ZM10.6191 1.15153L10.6235 1.16561C10.8089 1.84816 11.042 2.51491 11.3209 3.16023L11.3231 3.16727V3.17196L11.3341 3.18839C11.8027 3.21655 12.9533 3.28226 14.1633 3.34796L14.2403 3.35265L14.3943 3.36204L14.6429 3.37377C16.2138 3.46318 17.7846 3.55391 19.3553 3.64598L21.8787 3.8032L22.1427 3.81963C23.1481 3.88534 24.1623 3.95573 25.2293 4.03083C24.7044 3.56347 24.162 3.11882 23.6035 2.69795C23.4505 2.58298 23.2934 2.47417 23.1327 2.37177L23.1195 2.36708L20.7523 2.0409C20.4047 2.76835 18.8867 3.08514 17.2609 2.90914C16.4931 2.82982 15.7394 2.63712 15.0213 2.33657C14.4273 2.07375 14.0159 1.75696 13.8597 1.37915C13.6926 1.36606 13.5254 1.35355 13.3581 1.3416C12.4455 1.27297 11.5324 1.20961 10.6191 1.15153ZM15.2017 0.750257C14.8937 0.813615 14.6473 0.895747 14.4889 0.984918C14.4428 1.00833 14.3999 1.03833 14.3613 1.07409L14.3569 1.07644L14.3591 1.08817C14.4625 1.55749 15.7891 2.13241 17.2719 2.30372L17.3181 2.30841C18.0379 2.39528 18.7661 2.35644 19.4741 2.19343C19.9075 2.07844 20.1627 1.92357 20.2375 1.78981C20.2225 1.73634 20.2217 1.67945 20.2353 1.62554C20.1605 1.48475 19.9141 1.28998 19.5247 1.11398C18.8812 0.842674 18.2021 0.679597 17.5117 0.630579C16.7402 0.564837 15.9639 0.604265 15.2017 0.74791V0.750257Z" fill="#564341"/>
</g>
<defs>
<linearGradient id="paint0_linear_196_8980" x1="19.5226" y1="35.5415" x2="32.4879" y2="54.4804" gradientUnits="userSpaceOnUse">
<stop stop-color="#FFBC9C"/>
<stop offset="0.7" stop-color="#FFBC9C"/>
<stop offset="1" stop-color="#FFA67A"/>
</linearGradient>
<linearGradient id="paint1_linear_196_8980" x1="13.634" y1="43.226" x2="12.4222" y2="47.7981" gradientUnits="userSpaceOnUse">
<stop stop-color="#F28773"/>
<stop offset="0.3" stop-color="#F28773"/>
<stop offset="1" stop-color="#F6A66A"/>
</linearGradient>
<linearGradient id="paint2_linear_196_8980" x1="15.3444" y1="45.4393" x2="13.8627" y2="50.8632" gradientUnits="userSpaceOnUse">
<stop stop-color="#F28773"/>
<stop offset="0.3" stop-color="#F28773"/>
<stop offset="1" stop-color="#F6A66A"/>
</linearGradient>
<linearGradient id="paint3_linear_196_8980" x1="18.9381" y1="47.6643" x2="16.6268" y2="55.7181" gradientUnits="userSpaceOnUse">
<stop stop-color="#F28773"/>
<stop offset="0.3" stop-color="#F28773"/>
<stop offset="1" stop-color="#F6A66A"/>
</linearGradient>
<linearGradient id="paint4_linear_196_8980" x1="40.4144" y1="50.8742" x2="41.7737" y2="55.2173" gradientUnits="userSpaceOnUse">
<stop stop-color="#F57A55"/>
<stop offset="0.4" stop-color="#F28773"/>
<stop offset="1" stop-color="#FA9F6E"/>
</linearGradient>
<linearGradient id="paint5_linear_196_8980" x1="42.4408" y1="48.4313" x2="44.4565" y2="52.3778" gradientUnits="userSpaceOnUse">
<stop stop-color="#F57A55"/>
<stop offset="0.4" stop-color="#F28773"/>
<stop offset="1" stop-color="#FA9F6E"/>
</linearGradient>
<linearGradient id="paint6_linear_196_8980" x1="44.0846" y1="46.7348" x2="45.715" y2="49.5301" gradientUnits="userSpaceOnUse">
<stop stop-color="#F57A55"/>
<stop offset="0.4" stop-color="#F28773"/>
<stop offset="1" stop-color="#FA9F6E"/>
</linearGradient>
<linearGradient id="paint7_linear_196_8980" x1="34.6661" y1="10.627" x2="34.6661" y2="25.0892" gradientUnits="userSpaceOnUse">
<stop stop-color="#FFE768"/>
<stop offset="0.4" stop-color="#FFE768"/>
<stop offset="0.7" stop-color="#FFBD4A"/>
<stop offset="1" stop-color="#FFBD4A"/>
</linearGradient>
<linearGradient id="paint8_linear_196_8980" x1="37.5646" y1="23.7091" x2="44.4377" y2="34.309" gradientUnits="userSpaceOnUse">
<stop stop-color="#564341"/>
<stop offset="0.5" stop-color="#564341"/>
<stop offset="1" stop-color="#845750"/>
</linearGradient>
<linearGradient id="paint9_linear_196_8980" x1="27.8082" y1="22.2151" x2="34.7313" y2="33.0902" gradientUnits="userSpaceOnUse">
<stop stop-color="#564341"/>
<stop offset="0.5" stop-color="#564341"/>
<stop offset="1" stop-color="#845750"/>
</linearGradient>
<linearGradient id="paint10_linear_196_8980" x1="42.805" y1="46.603" x2="43.5425" y2="47.1388" gradientUnits="userSpaceOnUse">
<stop stop-color="#C35C45"/>
<stop offset="1" stop-color="#B76455"/>
</linearGradient>
<linearGradient id="paint11_linear_196_8980" x1="41.0766" y1="48.7243" x2="42.0078" y2="49.8631" gradientUnits="userSpaceOnUse">
<stop stop-color="#C35C45"/>
<stop offset="1" stop-color="#B76455"/>
</linearGradient>
<linearGradient id="paint12_linear_196_8980" x1="24.7832" y1="50.2753" x2="21.0228" y2="56.2318" gradientUnits="userSpaceOnUse">
<stop stop-color="#AA6160"/>
<stop offset="1" stop-color="#B36F5F"/>
</linearGradient>
<linearGradient id="paint13_linear_196_8980" x1="38.2207" y1="51.0661" x2="39.1968" y2="53.1052" gradientUnits="userSpaceOnUse">
<stop stop-color="#C35C45"/>
<stop offset="1" stop-color="#B76455"/>
</linearGradient>
<linearGradient id="paint14_linear_196_8980" x1="19.1113" y1="46.9927" x2="16.3618" y2="51.5622" gradientUnits="userSpaceOnUse">
<stop stop-color="#AA6160"/>
<stop offset="1" stop-color="#B36F5F"/>
</linearGradient>
<linearGradient id="paint15_linear_196_8980" x1="16.6669" y1="44.4447" x2="14.3938" y2="48.3385" gradientUnits="userSpaceOnUse">
<stop stop-color="#AA6160"/>
<stop offset="1" stop-color="#B36F5F"/>
</linearGradient>
<linearGradient id="paint16_linear_196_8980" x1="52.6746" y1="30.7241" x2="43.5479" y2="39.397" gradientUnits="userSpaceOnUse">
<stop stop-color="#FFCB87"/>
<stop offset="0.1" stop-color="#FFCB87"/>
<stop offset="0.4" stop-color="#FFBC9C"/>
<stop offset="1" stop-color="#FFBC9C"/>
</linearGradient>
<linearGradient id="paint17_linear_196_8980" x1="51.7871" y1="28.2992" x2="40.3444" y2="39.8564" gradientUnits="userSpaceOnUse">
<stop stop-color="#FBC38C"/>
<stop offset="0.3" stop-color="#F19675"/>
<stop offset="0.7" stop-color="#F0876A"/>
<stop offset="1" stop-color="#ED8870"/>
</linearGradient>
<linearGradient id="paint18_linear_196_8980" x1="46.3156" y1="32.3943" x2="46.3156" y2="34.0792" gradientUnits="userSpaceOnUse">
<stop stop-color="#FFFFFE"/>
<stop offset="1" stop-color="white"/>
</linearGradient>
<linearGradient id="paint19_linear_196_8980" x1="50.039" y1="29.8438" x2="50.039" y2="34.1545" gradientUnits="userSpaceOnUse">
<stop stop-color="#FFFFFE"/>
<stop offset="1" stop-color="white"/>
</linearGradient>
<linearGradient id="paint20_linear_196_8980" x1="6.34405" y1="16.1562" x2="14.6626" y2="43.0284" gradientUnits="userSpaceOnUse">
<stop stop-color="#FFCB87"/>
<stop offset="0.2" stop-color="#FFCB87"/>
<stop offset="0.7" stop-color="#FFBC9C"/>
<stop offset="1" stop-color="#FFBC9C"/>
</linearGradient>
<linearGradient id="paint21_linear_196_8980" x1="0.257619" y1="24.2869" x2="14.4118" y2="37.3637" gradientUnits="userSpaceOnUse">
<stop stop-color="#FFCB87"/>
<stop offset="0.3" stop-color="#F79E75"/>
<stop offset="0.5" stop-color="#EF876D"/>
<stop offset="1" stop-color="#ED8870"/>
</linearGradient>
<linearGradient id="paint22_linear_196_8980" x1="12.723" y1="26.8209" x2="12.9007" y2="31.6166" gradientUnits="userSpaceOnUse">
<stop stop-color="#FFFFFE"/>
<stop offset="1" stop-color="white"/>
</linearGradient>
<linearGradient id="paint23_linear_196_8980" x1="8.09109" y1="19.9925" x2="8.42894" y2="29.0817" gradientUnits="userSpaceOnUse">
<stop stop-color="#FFF9CE"/>
<stop offset="1" stop-color="white"/>
</linearGradient>
</defs>
</svg>
