<svg width="41" height="50" viewBox="0 0 41 50" fill="none" xmlns="http://www.w3.org/2000/svg">
<path d="M2.48491 45.9756L0.939296 4.79204C0.888251 3.43191 1.93115 2.27922 3.28959 2.19431L38.3191 0.0049703C39.7018 -0.0814501 40.8928 0.969414 40.9792 2.35214C40.9825 2.40424 40.9841 2.45642 40.9841 2.50862V47.3854C40.9841 48.7708 39.861 49.8939 38.4755 49.8939C38.438 49.8939 38.4005 49.8931 38.363 49.8914L4.87912 48.3875C3.57506 48.3289 2.53386 47.28 2.48491 45.9756Z" fill="#FF4785"/>
<mask id="mask0_196_9057" style="mask-type:luminance" maskUnits="userSpaceOnUse" x="0" y="0" width="41" height="50">
<path d="M2.48491 45.9756L0.939296 4.79204C0.888251 3.43191 1.93115 2.27922 3.28959 2.19431L38.3191 0.0049703C39.7018 -0.0814501 40.8928 0.969414 40.9792 2.35214C40.9825 2.40424 40.9841 2.45642 40.9841 2.50862V47.3854C40.9841 48.7708 39.861 49.8939 38.4755 49.8939C38.438 49.8939 38.4005 49.8931 38.363 49.8914L4.87912 48.3875C3.57506 48.3289 2.53386 47.28 2.48491 45.9756Z" fill="white"/>
</mask>
<g mask="url(#mask0_196_9057)">
<path d="M30.5083 6.13275L30.7475 0.377976L35.5581 0L35.7654 5.9347C35.7726 6.14125 35.611 6.31453 35.4045 6.32174C35.316 6.32483 35.2294 6.29647 35.1598 6.24171L33.3047 4.78032L31.1083 6.44643C30.9437 6.57133 30.7089 6.53911 30.584 6.37445C30.5314 6.30514 30.5047 6.21968 30.5083 6.13275ZM24.356 18.8057C24.356 19.7817 30.93 19.3139 31.8125 18.6284C31.8125 11.9823 28.2463 8.48983 21.7161 8.48983C15.1859 8.48983 11.5271 12.0366 11.5271 17.3567C11.5271 26.6226 24.0318 26.8 24.0318 31.8541C24.0318 33.2728 23.3371 34.1152 21.8087 34.1152C19.8172 34.1152 19.0299 33.0981 19.1225 29.64C19.1225 28.8898 11.5271 28.656 11.2956 29.64C10.7059 38.0202 15.9269 40.4374 21.9014 40.4374C27.6905 40.4374 32.2293 37.3516 32.2293 31.7654C32.2293 21.8345 19.5394 22.1005 19.5394 17.1794C19.5394 15.1843 21.0214 14.9183 21.9014 14.9183C22.8276 14.9183 24.4949 15.0816 24.356 18.8057Z" fill="white"/>
</g>
</svg>
