<svg xmlns="http://www.w3.org/2000/svg" viewBox="0 0 55 55" width="55" height="55"><path fill="#fff" d="M9.741 20.195h42.827v31.655H9.741z"/><path data-name="original" fill="#007acc" d="M0.645 27.461v26.855h53.711v-53.711H0.645zm43.282 -2.148a6.686 6.686 0 0 1 3.36 1.934 8.852 8.852 0 0 1 1.289 1.719c0 0.069 -2.32 1.637 -3.734 2.514 -0.052 0.034 -0.258 -0.189 -0.486 -0.529a3.046 3.046 0 0 0 -2.522 -1.517c-1.629 -0.112 -2.677 0.743 -2.668 2.148a1.977 1.977 0 0 0 0.232 1.005c0.357 0.743 1.023 1.186 3.111 2.088 3.846 1.654 5.491 2.746 6.514 4.297 1.143 1.719 1.396 4.495 0.623 6.548 -0.859 2.234 -2.965 3.751 -5.943 4.254a16.457 16.457 0 0 1 -4.091 -0.043 9.883 9.883 0 0 1 -5.466 -2.849c-0.494 -0.546 -1.457 -1.968 -1.396 -2.071a3.867 3.867 0 0 1 0.494 -0.314L35.234 43.398l1.543 -0.894 0.322 0.477a7.219 7.219 0 0 0 2.037 1.951c1.719 0.902 4.065 0.778 5.225 -0.266a2.333 2.333 0 0 0 0.296 -2.973c-0.43 -0.597 -1.289 -1.1 -3.691 -2.148 -2.771 -1.195 -3.966 -1.934 -5.057 -3.111a7.09 7.09 0 0 1 -1.474 -2.686 10.742 10.742 0 0 1 -0.095 -3.438c0.571 -2.677 2.578 -4.546 5.509 -5.1a13.621 13.621 0 0 1 4.078 0.112zm-12.607 2.252v2.2H24.346v19.864H19.4V29.76H12.409v-2.148a21.055 21.055 0 0 1 0.052 -2.221C12.495 25.352 16.758 25.352 21.914 25.352h9.38z"/></svg>